<?xml version="1.0" encoding="UTF-8"?>
<svg width="17px" height="17px" viewBox="0 0 17 17" version="1.1" xmlns="http://www.w3.org/2000/svg" xmlns:xlink="http://www.w3.org/1999/xlink">
    <!-- Generator: Sketch 52.1 (67048) - http://www.bohemiancoding.com/sketch -->
    <title>Group 6</title>
    <desc>Created with Sketch.</desc>
    <defs>
        <polygon id="path-1" points="0.000264477731 0 17 0 17 17 0.000264477731 17"></polygon>
    </defs>
    <g id="Page-1" stroke="none" stroke-width="1" fill="none" fill-rule="evenodd">
        <g id="PrimeXBT_v2" transform="translate(-639.000000, -1062.000000)">
            <g id="Group-26" transform="translate(583.000000, 970.000000)">
                <g id="Page"></g>
                <g id="Group-6" transform="translate(56.000000, 92.000000)">
                    <g id="Group-3" transform="translate(0.000000, 0.000089)">
                        <mask id="mask-2" fill="white">
                            <use xlink:href="#path-1"></use>
                        </mask>
                        <g id="Clip-2"></g>
                        <path d="M8.49311053,17 C3.79842632,16.9955263 -0.00420526316,13.1875263 0.000268421053,8.49284211 C0.00384736842,3.79815789 3.81184737,-0.00447368421 8.50653158,8.47032947e-22 C13.1985316,0.00357894737 17.0002684,3.808 17.0002684,8.5 C16.9931105,13.1937895 13.1877947,16.9955263 8.49311053,17" id="Fill-1" fill="#EFA80A" mask="url(#mask-2)"></path>
                    </g>
                    <path d="M8.78926842,10.7631474 L7.76926842,10.7631474 L7.76926842,8.78935789 L8.9539,8.78935789 C9.23037368,8.78935789 10.2691632,8.88151579 10.2691632,9.61877895 C10.2691632,10.3551474 9.77705789,10.7703053 8.78926842,10.7703053 L8.78926842,10.7631474 Z M7.76926842,6.03267368 L8.42779474,6.03267368 C8.88768947,6.03267368 9.79584737,6.11230526 9.79584737,6.86209474 C9.82716316,7.35151579 9.47374211,7.78009474 8.98700526,7.84183158 L7.76926842,7.84183158 L7.76926842,6.03267368 Z M10.7890053,8.08609474 C11.3580579,7.76488421 11.6649526,7.12425263 11.5593737,6.48004211 C11.4278474,5.48688421 10.2432158,5.11198947 9.30911053,5.03325263 L9.30911053,3.53993684 L8.38842632,3.53993684 L8.38842632,5.01983158 L7.76926842,5.01983158 L7.76926842,3.53993684 L6.84858421,3.53993684 L6.84858421,5.01983158 L4.99379474,5.01983158 L4.99379474,5.97362105 L5.68363684,5.97362105 C5.99321579,5.97362105 6.14442632,6.06577895 6.14442632,6.31541053 L6.14442632,10.4142 C6.14442632,10.7568842 5.97442632,10.8615684 5.78921579,10.8615684 L5.08505789,10.8615684 L5.08505789,11.8350421 L6.87453158,11.8350421 L6.87453158,13.3489368 L7.80237368,13.3489368 L7.80237368,11.8350421 L8.42153158,11.8350421 L8.42153158,13.3489368 L9.32253158,13.3489368 L9.32253158,11.8350421 L9.51937368,11.8350421 C11.4144263,11.8350421 12.0461105,10.9080947 12.0461105,9.64472632 C12.0309,8.90030526 11.5146368,8.25877895 10.7890053,8.08609474 Z" id="Fill-4" fill="#FFFFFF"></path>
                </g>
            </g>
            <g id="Page"></g>
        </g>
    </g>
</svg>