<?xml version="1.0" encoding="UTF-8"?>
<svg width="17px" height="17px" viewBox="0 0 17 17" version="1.1" xmlns="http://www.w3.org/2000/svg" xmlns:xlink="http://www.w3.org/1999/xlink">
    <!-- Generator: Sketch 52.1 (67048) - http://www.bohemiancoding.com/sketch -->
    <title>Group 28</title>
    <desc>Created with Sketch.</desc>
    <g id="Page-1" stroke="none" stroke-width="1" fill="none" fill-rule="evenodd">
        <g id="PrimeXBT_v2" transform="translate(-638.000000, -1105.000000)">
            <g id="Page"></g>
            <g id="Group-28" transform="translate(638.000000, 1105.000000)">
                <circle id="Oval" fill="#908F8F" fill-rule="nonzero" cx="8.5" cy="8.5" r="8.5"></circle>
                <path d="M9.01771084,2 L8.03589623,2 L4,9.0691636 L8.03589623,14.3529412 L9.01771084,14.3529412 L13,9.0691636 L9.01771084,2 Z M7.88235294,7.29436021 L5.58823529,8.17647059 L7.88235294,3.94117647 L7.88235294,7.29436021 Z M8.05882353,8.35294118 L8.05882353,9.76470588 L5.94117647,9.05883489 L8.05882353,8.35294118 Z M8.94117647,8.35294118 L11.0588235,9.14705882 L8.94117647,9.94117647 L8.94117647,8.35294118 Z M11.2352941,8.17647059 L8.94117647,7.30502203 L8.94117647,3.94117647 L11.2352941,8.17647059 Z M8.43568499,13.4705882 L5.94117647,10.1176471 L8.44000512,11.0536091 L10.8823529,10.1376618 L8.43568499,13.4705882 Z" id="Fill-1" fill="#FFFFFF"></path>
            </g>
        </g>
    </g>
</svg>