<?xml version="1.0" encoding="UTF-8"?>
<svg width="17px" height="17px" viewBox="0 0 17 17" version="1.1" xmlns="http://www.w3.org/2000/svg" xmlns:xlink="http://www.w3.org/1999/xlink">
    <!-- Generator: Sketch 52.1 (67048) - http://www.bohemiancoding.com/sketch -->
    <title>Group 32</title>
    <desc>Created with Sketch.</desc>
    <g id="Page-1" stroke="none" stroke-width="1" fill="none" fill-rule="evenodd">
        <g id="PrimeXBT_v2" transform="translate(-902.000000, -1152.000000)">
            <g id="Group-26" transform="translate(583.000000, 970.000000)">
                <g id="Group-27" transform="translate(319.000000, 182.000000)">
                    <g id="Group-32">
                        <circle id="Oval" fill="#FFC200" fill-rule="nonzero" cx="8.5" cy="8.5" r="8.5"></circle>
                        <g id="gold" transform="translate(2.000000, 2.000000)" fill="#000000">
                            <path d="M3.64160756,6.6253435 L9.35091545,6.6253435 C9.41581993,6.62420118 9.47667434,6.59398165 9.51686318,6.54309657 C9.55705203,6.49221146 9.57242138,6.425957 9.55860972,6.36261023 L8.88287639,3.31573523 C8.86189928,3.21708046 8.77612156,3.14563363 8.67528599,3.14272591 L4.31734089,3.14272591 C4.21660915,3.14532209 4.1308314,3.21656124 4.10975045,3.31500829 L3.43401713,6.35845635 C3.41999776,6.42263389 3.43536713,6.48982299 3.47576369,6.5416427 C3.51564099,6.59304703 3.57659924,6.62378579 3.64160756,6.6253435 Z M4.48796171,3.56808379 L8.50466513,3.56808379 L9.08579371,6.19998563 L3.90683313,6.19998563 L4.48796171,3.56808379 Z" id="Shape" fill-rule="nonzero"></path>
                            <path d="M8.07224565,4.26728655 C8.050957,4.1695664 7.96455618,4.09988497 7.86455138,4.09978113 L6.19230093,4.09978113 C6.07484981,4.09978113 5.97962199,4.19500895 5.97962199,4.31246007 C5.97962199,4.42991116 6.07484981,4.525139 6.19230093,4.525139 L7.6934113,4.525139 L7.91024412,5.51521759 C7.92613273,5.58977985 7.98075633,5.65011503 8.05334549,5.67337679 C8.12593462,5.69663855 8.20548154,5.67929607 8.26166283,5.62778789 C8.31794797,5.57638355 8.34235205,5.49870592 8.32573651,5.42435134 L8.07224565,4.26728655 Z" id="Path"></path>
                            <path d="M12.3119089,7.06420149 C12.2909317,6.96554672 12.205154,6.89409989 12.1043184,6.89119217 L7.74626948,6.89119217 C7.64543393,6.89409989 7.55965619,6.96554672 7.53867905,7.06420149 L6.86294575,10.1079611 C6.84903022,10.1721386 6.86429576,10.23912 6.90469229,10.290732 C6.94467343,10.3419287 7.0056317,10.3724597 7.07053618,10.3738098 L12.7799479,10.3738098 C12.8447485,10.3730828 12.9057068,10.3431748 12.9457918,10.2922898 C12.9862922,10.2403662 13.0015577,10.1731771 12.9875383,10.1088957 L12.3119089,7.06420149 Z M7.33576176,9.94845189 L7.91689034,7.31655004 L11.9336976,7.31655004 L12.5148262,9.94845189 L7.33576176,9.94845189 Z" id="Shape" fill-rule="nonzero"></path>
                            <path d="M11.5012781,8.01637588 C11.4799895,7.91855189 11.3935886,7.84866278 11.29348,7.84824739 L9.62133339,7.84824739 C9.5038823,7.84824739 9.40865445,7.9434752 9.40865445,8.06092632 C9.40865445,8.17837742 9.5038823,8.27360526 9.62133339,8.27360526 L11.1223399,8.27360526 L11.3390689,9.26441079 C11.3542306,9.3398038 11.4087503,9.40117746 11.4818587,9.42495847 C11.5548632,9.4486356 11.6351371,9.43118928 11.6916299,9.37916187 C11.7482266,9.32703062 11.7723191,9.24852218 11.7545613,9.17375224 L11.5012781,8.01637588 Z" id="Path"></path>
                            <path d="M5.4539478,7.06420149 C5.43297066,6.96554672 5.34719294,6.89409989 5.24635736,6.89119217 L0.888308397,6.89119217 C0.787472847,6.89409989 0.701695098,6.96554672 0.68071799,7.06420149 L0.00508850307,10.1079611 C-0.00893086708,10.1721386 0.00633466871,10.23912 0.0468350654,10.290732 C0.0868162065,10.3420325 0.147670642,10.3724597 0.212678937,10.3738098 L5.92209069,10.3738098 C5.9868913,10.3730828 6.04784958,10.3431748 6.08793456,10.2922898 C6.12843496,10.2403662 6.14370047,10.1731771 6.1296811,10.1088957 L5.4539478,7.06420149 Z M0.477800671,9.94845189 L1.05892925,7.31655004 L5.07573651,7.31655004 L5.65686509,9.94845189 L0.477800671,9.94845189 Z" id="Shape" fill-rule="nonzero"></path>
                            <path d="M4.64331703,8.01637588 C4.62202837,7.91855189 4.53562756,7.84866278 4.43551892,7.84824739 L2.7633723,7.84824739 C2.64592121,7.84824739 2.55069337,7.9434752 2.55069337,8.06092632 C2.55069337,8.17837742 2.64592121,8.27360526 2.7633723,8.27360526 L4.26448267,8.27360526 L4.48121166,9.26441079 C4.49626948,9.3398038 4.55089309,9.40117746 4.62389764,9.42495847 C4.69700602,9.4486356 4.77727985,9.43118928 4.83377269,9.37916187 C4.89036938,9.32703062 4.91435807,9.24852218 4.89670404,9.17375224 L4.64331703,8.01637588 Z" id="Path"></path>
                            <path d="M9.98562915,2.974182 C10.042122,2.97428584 10.0962264,2.95185486 10.1361037,2.91187372 L10.9060263,2.14184719 C10.9607538,2.08836594 10.9824578,2.00954596 10.9629346,1.93560679 C10.9434113,1.86156379 10.8855684,1.80372092 10.8116293,1.78419765 C10.7375863,1.76467439 10.6587663,1.78637844 10.605285,1.84110589 L9.83536236,2.61102857 C9.77450792,2.67188298 9.75633467,2.7633723 9.7892542,2.84281538 C9.82217377,2.92225844 9.89974756,2.97407816 9.98573301,2.974182 L9.98562915,2.974182 Z" id="Path"></path>
                            <path d="M6.44309177,1.58169575 C6.56064673,1.58169575 6.65577071,1.48646791 6.65577071,1.36901681 L6.65577071,0.222232873 C6.65577071,0.104781755 6.56064673,0.00955393661 6.44309177,0.00955393661 C6.32564065,0.00955393661 6.23041283,0.104781755 6.23041283,0.222232873 L6.23041283,1.36901681 C6.23041283,1.48646791 6.32564065,1.58169575 6.44309177,1.58169575 Z" id="Path"></path>
                            <path d="M2.8565232,2.91187372 C2.91000449,2.96691269 2.98903215,2.98882444 3.06317899,2.96930118 C3.1374297,2.94988179 3.19537639,2.89183123 3.21479581,2.81768436 C3.23431908,2.74343365 3.21230348,2.66450983 3.15726451,2.61102857 L2.38734183,1.84110589 C2.33386054,1.78637844 2.25504059,1.76467439 2.18099756,1.78419765 C2.10695456,1.80372092 2.04921555,1.86156379 2.02969229,1.93560679 C2.01016902,2.00954596 2.0318731,2.08836594 2.08660052,2.14184719 L2.8565232,2.91187372 Z" id="Path"></path>
                        </g>
                    </g>
                </g>
                <g id="Page"></g>
            </g>
            <g id="Page"></g>
        </g>
    </g>
</svg>