<?xml version="1.0" encoding="UTF-8"?>
<svg width="17px" height="17px" viewBox="0 0 17 17" version="1.1" xmlns="http://www.w3.org/2000/svg" xmlns:xlink="http://www.w3.org/1999/xlink">
    <!-- Generator: Sketch 52.1 (67048) - http://www.bohemiancoding.com/sketch -->
    <title>Group 7</title>
    <desc>Created with Sketch.</desc>
    <g id="Page-1" stroke="none" stroke-width="1" fill="none" fill-rule="evenodd">
        <g id="PrimeXBT_v2" transform="translate(-638.000000, -1199.000000)">
            <g id="Group-26" transform="translate(583.000000, 970.000000)">
                <g id="Page"></g>
                <g id="Group-7" transform="translate(55.000000, 229.000000)">
                    <path d="M17,8.5 C17,13.1946842 13.1946842,17 8.5,17 C3.80531579,17 0,13.1946842 0,8.5 C0,3.80531579 3.80531579,0 8.5,0 C13.1946842,0 17,3.80531579 17,8.5" id="Fill-1" fill="#2EABD9"></path>
                    <path d="M10.3995263,3.57894737 C10.2438421,3.60131579 10.0881579,3.62457895 9.93336842,3.64873684 C9.51821053,3.71136842 9.17105263,3.91357895 8.87131579,4.19631579 C8.585,4.46742105 8.39710526,4.80026316 8.29242105,5.18321053 C8.20384211,5.50621053 8.19936842,5.83278947 8.28526316,6.14773684 C8.35236842,6.39289474 8.47673684,6.62015789 8.58142105,6.85278947 C8.68252632,7.07736842 8.69415789,7.31089474 8.62257895,7.53547368 C8.517,7.86563158 8.27452632,8.06336842 7.93005263,8.10989474 C7.53636842,8.16357895 7.20173684,8.03742105 6.99594737,7.68757895 C6.81968421,7.38515789 6.61568421,7.11584211 6.32489474,6.91542105 C5.66815789,6.46268421 4.95952632,6.38305263 4.22942105,6.67652632 C3.56284211,6.94405263 3.13963158,7.446 2.96247368,8.15284211 C2.84884211,8.61363158 2.91057895,9.05294737 3.11189474,9.47168421 C3.37584211,10.0165789 3.80352632,10.3798421 4.38063158,10.5784737 C4.82710526,10.7332632 5.27089474,10.7332632 5.71021053,10.5981579 C6.24526316,10.4317368 6.66221053,10.0962105 6.95031579,9.61126316 C7.06394737,9.418 7.22321053,9.29094737 7.429,9.20863158 C7.76184211,9.07531579 8.21994737,9.19073684 8.46152632,9.47615789 C8.70578947,9.76426316 8.72994737,10.1973158 8.52505263,10.5194211 C8.22531579,10.9882632 8.10184211,11.4902105 8.22084211,12.0485263 C8.44273684,13.0891053 9.30347368,13.6930526 10.2769474,13.7431579 C10.5203158,13.7556842 10.7788947,13.6957368 11.0133158,13.617 C11.8176842,13.3458947 12.3097895,12.7848947 12.4529474,11.9429474 C12.5531579,11.3533158 12.3912105,10.8200526 12.0216842,10.3601579 C11.5796842,9.80989474 10.9775263,9.56294737 10.2832105,9.54594737 C9.95931579,9.53789474 9.70789474,9.41263158 9.50747368,9.17194737 C9.32047368,8.94647368 9.27931579,8.67357895 9.35894737,8.40694737 C9.47615789,8.01236842 9.80989474,7.752 10.2447368,7.78242105 C10.5024211,7.80121053 10.7547368,7.76721053 10.9998947,7.68757895 C11.4544211,7.54084211 11.8382632,7.29478947 12.1272632,6.90468421 C12.3366316,6.61926316 12.478,6.30252632 12.5164737,5.95984211 C12.5451053,5.70663158 12.5057368,5.44089474 12.4618947,5.18678947 C12.4046316,4.86468421 12.2426842,4.58015789 12.0261579,4.33947368 C11.5957895,3.859 11.0535789,3.60221053 10.3995263,3.57894737" id="Fill-3" fill="#FFFFFF"></path>
                    <path d="M10.3995263,3.57894737 C11.0535789,3.60221053 11.5957895,3.859 12.0261579,4.33947368 C12.2426842,4.58015789 12.4046316,4.86468421 12.4618947,5.18678947 C12.5057368,5.44089474 12.5451053,5.70663158 12.5164737,5.95984211 C12.478,6.30252632 12.3366316,6.61926316 12.1272632,6.90468421 C11.8382632,7.29478947 11.4544211,7.54084211 10.9998947,7.68757895 C10.7547368,7.76721053 10.5024211,7.80121053 10.2447368,7.78242105 C9.80989474,7.752 9.47615789,8.01236842 9.35894737,8.40694737 C9.27931579,8.67357895 9.32047368,8.94647368 9.50747368,9.17194737 C9.70789474,9.41263158 9.95931579,9.53789474 10.2832105,9.54594737 C10.9775263,9.56294737 11.5796842,9.80989474 12.0216842,10.3601579 C12.3912105,10.8200526 12.5531579,11.3533158 12.4529474,11.9429474 C12.3097895,12.7848947 11.8176842,13.3458947 11.0133158,13.617 C10.7788947,13.6957368 10.5203158,13.7556842 10.2769474,13.7431579 C9.30347368,13.6930526 8.44273684,13.0891053 8.22084211,12.0485263 C8.10184211,11.4902105 8.22531579,10.9882632 8.52505263,10.5194211 C8.72994737,10.1973158 8.70578947,9.76426316 8.46152632,9.47615789 C8.21994737,9.19073684 7.76184211,9.07531579 7.429,9.20863158 C7.22321053,9.29094737 7.06394737,9.418 6.95031579,9.61126316 C6.66221053,10.0962105 6.24526316,10.4317368 5.71021053,10.5981579 C5.27089474,10.7332632 4.82710526,10.7332632 4.38063158,10.5784737 C3.80352632,10.3798421 3.37584211,10.0165789 3.11189474,9.47168421 C2.91057895,9.05294737 2.84884211,8.61363158 2.96247368,8.15284211 C3.13963158,7.446 3.56284211,6.94405263 4.22942105,6.67652632 C4.95952632,6.38305263 5.66815789,6.46268421 6.32489474,6.91542105 C6.61568421,7.11584211 6.81968421,7.38515789 6.99594737,7.68757895 C7.20173684,8.03742105 7.53636842,8.16357895 7.93005263,8.10989474 C8.27452632,8.06336842 8.517,7.86563158 8.62257895,7.53547368 C8.69415789,7.31089474 8.68252632,7.07736842 8.58142105,6.85278947 C8.47673684,6.62015789 8.35236842,6.39289474 8.28526316,6.14773684 C8.19936842,5.83278947 8.20384211,5.50621053 8.29242105,5.18321053 C8.39710526,4.80026316 8.585,4.46742105 8.87131579,4.19631579 C9.17105263,3.91357895 9.51821053,3.71136842 9.93336842,3.64873684 C10.0881579,3.62457895 10.2438421,3.60131579 10.3995263,3.57894737" id="Fill-5" fill="#FFFFFF"></path>
                </g>
            </g>
            <g id="Page"></g>
        </g>
    </g>
</svg>