<?xml version="1.0" encoding="UTF-8"?>
<svg width="22px" height="14px" viewBox="0 0 22 14" version="1.1" xmlns="http://www.w3.org/2000/svg" xmlns:xlink="http://www.w3.org/1999/xlink">
    <g id="Page-1" stroke="none" stroke-width="1" fill="none" fill-rule="evenodd">
        <g id="Group-3" transform="translate(-1.000000, -1.000000)" fill-rule="nonzero" fill="#259EFA">
            <path d="M1.5,2 L22.5,2 C22.7761424,2 23,1.77614237 23,1.5 C23,1.22385763 22.7761424,1 22.5,1 L1.5,1 C1.22385763,1 1,1.22385763 1,1.5 C1,1.77614237 1.22385763,2 1.5,2 Z" id="Line"/>
            <path d="M1.5,15 L22.5,15 C22.7761424,15 23,14.7761424 23,14.5 C23,14.2238576 22.7761424,14 22.5,14 L1.5,14 C1.22385763,14 1,14.2238576 1,14.5 C1,14.7761424 1.22385763,15 1.5,15 Z" id="Line-Copy"/>
            <path d="M7.53909616,11.099188 L11.3057964,7.38076007 L12.8095621,8.86525418 L14.8047656,7.38410895 C15.02367,7.22160468 15.064668,6.91855418 14.8963374,6.70722672 C14.7280067,6.49589927 14.4140907,6.45632025 14.1951864,6.61882453 L12.9037796,7.57750418 L11.3057964,6 L7.53909616,9.71842792 L5.58099249,7.78541841 L2.14252197,11.1798231 C1.949452,11.3704187 1.95298589,11.6760238 2.15041512,11.8624111 C2.34784436,12.0487984 2.66440651,12.0453868 2.85747648,11.8547912 L5.58099249,9.16617848 L7.53909616,11.099188 Z" id="Path-2"/>
            <path d="M16,9 C14.8954305,9 14,8.1045695 14,7 C14,5.8954305 14.8954305,5 16,5 C17.1045695,5 18,5.8954305 18,7 C18,8.1045695 17.1045695,9 16,9 Z M16,8 C16.5522847,8 17,7.55228475 17,7 C17,6.44771525 16.5522847,6 16,6 C15.4477153,6 15,6.44771525 15,7 C15,7.55228475 15.4477153,8 16,8 Z" id="Oval"/>
            <polygon id="Path-3" points="20.8571429 7 22 7 22 3 18 3 18 4.14285714 20.8571429 4.14285714"/>
            <polygon id="Path-3-Copy" points="18 11.8571429 18 13 22 13 22 9 20.8571429 9 20.8571429 11.8571429"/>
        </g>
    </g>
</svg>