<?xml version="1.0" encoding="UTF-8"?>
<svg width="28px" height="18px" viewBox="0 0 28 18" version="1.1" xmlns="http://www.w3.org/2000/svg" xmlns:xlink="http://www.w3.org/1999/xlink">
    <g id="Components" stroke="none" stroke-width="1" fill="none" fill-rule="evenodd">
        <g id="Main-web" transform="translate(-316.000000, -800.000000)" fill-rule="nonzero">
            <g id="its-simple" transform="translate(240.000000, 706.000000)">
                <g id="1-copy" transform="translate(75.000000, 0.000000)">
                    <g id="Group-4" transform="translate(1.000000, 94.000000)">
                        <path d="M16.5894664,1.2 L24.3894664,1.2 L24.6294664,1.2 L24.6294664,1.2 L24.6294664,1.44 L24.6294664,2.04 L24.6294664,2.64 L13.3494664,2.64 L5.18946638,2.64 L2.06946638,2.64 L1.46946638,2.64 L1.22946638,2.64 L1.22946638,2.16 L1.22946638,1.8 L1.22946638,1.2 L1.82946638,1.2 L6.62946638,1.2 L16.5894664,1.2 L16.5894664,1.2 Z M16.5894664,0 L1.82946638,0 C0.389466384,0 0.0294663844,0.36 0.0294663844,1.8 C0.0294663844,3.72 -0.0905336156,3.84 1.10946638,3.84 L2.18946638,3.84 L13.4694664,3.84 L25.1094664,3.84 L25.1094664,3.84 C25.7094664,3.84 25.9494664,3.72 25.9494664,3 L25.9494664,1.32 C25.9494664,0.48 25.4694664,0 24.6294664,0 L16.5894664,0 L16.5894664,0 Z" id="Shape" fill="#259EFA"/>
                        <path d="M24.2000122,15 L25.1000061,15 L23.7999878,16.32 L22.7000122,15 L23.5494664,15 L23.5494664,10.2 L24.2000122,10.2 L24.2000122,15 Z M22.4694517,8.88 C22.4694517,8.93295384 22.4694664,12.1329538 22.4694664,13.68 L19.8294664,13.68 C20.7894664,14.76 23.9094664,18 23.9094664,18 C23.9094664,18 27.1494517,14.52 27.8694517,13.8 L25.4694517,13.8 L25.4694517,8.88 L22.4694517,8.88 Z" id="Shape" fill="#259EFA"/>
                        <path d="M1.10946638,6.48 L12.7494664,6.48 L24.6294664,6.48 L24.6294664,6.72 L21.5094664,6.72 L20.3094664,6.72 L20.3094664,7.92 L20.3094664,8.88 L20.3094664,11.64 L17.5494664,11.64 L14.7894664,11.64 L16.7094664,13.68 L18.1494664,15.24 L18.6294664,15.72 L10.8294664,15.72 L1.58946638,15.72 L1.10946638,15.72 L1.10946638,15.24 L1.10946638,12.36 C1.22946638,10.44 1.22946638,8.4 1.10946638,6.48 L1.10946638,6.48 Z M5.66946638,14.28 C6.14946638,14.28 6.50946638,14.16 6.98946638,14.04 L6.98946638,14.04 L6.98946638,14.04 C7.34946638,14.28 7.82946638,14.28 8.30946638,14.28 C9.26946638,14.28 10.2294664,13.8 10.8294664,12.96 C11.6694664,11.76 11.5494664,10.32 10.7094664,9.24 C10.1094664,8.52 9.26946638,8.04 8.30946638,8.04 C7.94946638,8.04 7.46946638,8.16 7.10946638,8.28 C7.10946638,8.28 7.10946638,8.28 6.98946638,8.28 C6.62946638,8.16 6.14946638,8.04 5.66946638,8.04 C4.82946638,8.04 3.98946638,8.4 3.38946638,9 C2.78946638,9.6 2.54946638,10.32 2.54946638,11.16 C2.54946638,12.96 3.98946638,14.28 5.66946638,14.28 L5.66946638,14.28 Z M0.869466384,5.28 C0.149466384,5.28 -0.0905336156,5.52 0.0294663844,6.24 L0.0294663844,15.24 C0.0294663844,16.56 0.389466384,16.92 1.70946638,16.92 L10.9494664,16.92 L21.5094664,16.92 L19.1094664,14.4 L17.6694664,12.84 L21.6294664,12.84 L21.6294664,8.88 L21.6294664,7.92 L25.9494664,7.92 L25.9494664,6.12 C25.9494664,5.52 25.7094664,5.28 25.1094664,5.28 L25.1094664,5.28 L12.8694664,5.28 L0.869466384,5.28 L0.869466384,5.28 L0.869466384,5.28 Z M5.66946638,13.08 C4.70946638,13.08 3.74946638,12.24 3.74946638,11.16 C3.74946638,10.08 4.58946638,9.24 5.66946638,9.24 C5.90946638,9.24 6.14946638,9.24 6.50946638,9.36 C6.62946638,9.36 6.86946638,9.48 6.98946638,9.48 C7.10946638,9.48 7.34946638,9.48 7.46946638,9.36 C7.70946638,9.24 8.06946638,9.24 8.30946638,9.24 C8.90946638,9.24 9.38946638,9.48 9.74946638,9.96 C10.3494664,10.68 10.3494664,11.52 9.86946638,12.24 C9.50946638,12.72 8.90946638,13.08 8.30946638,13.08 C8.06946638,13.08 7.82946638,13.08 7.46946638,12.96 C7.22946638,12.84 7.10946638,12.84 6.98946638,12.84 C6.86946638,12.84 6.62946638,12.84 6.50946638,12.96 C6.14946638,12.96 5.90946638,13.08 5.66946638,13.08 L5.66946638,13.08 Z" id="Shape" fill="#259EFA"/>
                    </g>
                </g>
            </g>
        </g>
    </g>
</svg>