<?xml version="1.0" encoding="UTF-8"?>
<svg width="46px" height="44px" viewBox="0 0 46 44" version="1.1" xmlns="http://www.w3.org/2000/svg" xmlns:xlink="http://www.w3.org/1999/xlink">
    <g id="Components" stroke="none" stroke-width="1" fill="none" fill-rule="evenodd">
        <g id="Features-web" transform="translate(-218.000000, -214.000000)" fill-rule="nonzero" fill="#259EFA">
            <g id="features" transform="translate(110.000000, 205.000000)">
                <g id="text" transform="translate(110.000000, 0.000000)">
                    <path d="M16.3619391,24.6285873 C16.1466296,25.0950912 15.7075323,25.418937 15.1982456,25.4868419 L3.20699553,27.0856752 L12.0606602,35.9393398 C12.4204472,36.2991268 12.5733153,36.8167725 12.4667036,37.3142936 L10.1468274,48.1403826 L20.2888503,42.6792934 C20.7328148,42.4402355 21.2671852,42.4402355 21.7111497,42.6792934 L32.0948446,48.2705136 L30.5150758,37.212132 C30.451848,36.7695378 30.5893462,36.3218089 30.8900899,35.9909908 L38.9649852,27.108606 L26.8017544,25.4868419 C26.2924677,25.418937 25.8533704,25.0950912 25.6380609,24.6285873 L21,14.5794553 L16.3619391,24.6285873 Z M19.6380609,10.3714127 C20.1743149,9.20952909 21.8256851,9.20952909 22.3619391,10.3714127 L28.0161544,22.6222127 L42.1982456,24.5131581 C43.3974339,24.6730499 43.9237102,26.1138291 43.1099101,27.0090092 L33.5847546,37.4866803 L35.4849242,50.787868 C35.6589827,52.0062775 34.372516,52.904219 33.2888503,52.3207066 L21,45.7036334 L8.71114973,52.3207066 C7.58502879,52.9270795 6.26530905,51.9363139 6.53329638,50.6857064 L9.3623122,37.4836325 L-1.06066017,27.0606602 C-1.93926504,26.1820553 -1.42988086,24.6773762 -0.19824558,24.5131581 L13.9838456,22.6222127 L19.6380609,10.3714127 Z" id="Shape"/>
                </g>
            </g>
        </g>
    </g>
</svg>