<?xml version="1.0" encoding="UTF-8"?>
<svg width="28px" height="17px" viewBox="0 0 28 17" version="1.1" xmlns="http://www.w3.org/2000/svg" xmlns:xlink="http://www.w3.org/1999/xlink">
    <g id="Components" stroke="none" stroke-width="1" fill="none" fill-rule="evenodd">
        <g id="Main-web" transform="translate(-924.000000, -801.000000)" fill-rule="nonzero" fill="#259EFA">
            <g id="its-simple" transform="translate(240.000000, 706.000000)">
                <g id="1-copy-2" transform="translate(683.000000, 89.000000)">
                    <g id="Group-2" transform="translate(1.000000, 6.000000)">
                        <path d="M23.525,1.5875 L23.75,1.8125 L24.65,2.7125 L24.7625,2.825 L23.75,2.825 L23.75,3.95 L23.75,6.2 L23.525,6.2 L23.525,3.95 L23.525,2.825 L22.5125,2.825 L22.625,2.7125 L23.1875,2.15 L23.4125,1.925 L23.525,1.5875 L23.525,1.5875 L23.525,1.5875 Z M19.7,3.95 L22.2875,3.95 L22.2875,7.325 L24.7625,7.325 L24.7625,3.95 L27.2375,3.95 C26.4034261,3.01166689 23.8625,0.35 23.525,0.0125 C23.1875,0.35 20.375,3.275 19.7,3.95 Z" id="Shape"/>
                        <path d="M1.3625,6.65 L6.9875,6.65 L9.9125,6.65 L12.95,6.65 L14.6375,6.65 L16.4375,6.65 L20.2625,6.65 L20.2625,7.775 L20.2625,8.675 L20.2625,9.8 L21.3875,9.8 L22.2875,9.8 L24.425,9.8 L24.425,12.275 L24.425,15.2 L24.425,15.65 L23.975,15.65 L12.95,15.65 L1.925,15.65 L1.475,15.65 L1.475,15.2 L1.475,12.3875 C1.3625,10.5875 1.3625,8.5625 1.3625,6.65 L1.3625,6.65 Z M5.75,14.3 C6.2,14.3 6.5375,14.1875 6.9875,14.075 L7.1,14.075 L7.2125,14.075 C7.55,14.3 8,14.3 8.45,14.3 C9.35,14.3 10.3625,13.85 10.925,13.0625 C11.7125,11.9375 11.7125,10.475 10.8125,9.4625 C10.25,8.7875 9.4625,8.3375 8.45,8.3375 C8,8.3375 7.6625,8.45 7.2125,8.5625 C7.2125,8.5625 7.2125,8.5625 7.1,8.5625 L7.1,8.5625 L7.1,8.5625 C6.7625,8.45 6.3125,8.3375 5.8625,8.3375 C5.075,8.3375 4.2875,8.675 3.725,9.2375 C3.1625,9.8 2.825,10.5875 2.825,11.375 C2.7125,13.0625 4.0625,14.3 5.75,14.3 L5.75,14.3 Z M1.025,5.525 C0.35,5.525 0.125,5.75 0.125,6.425 L0.125,15.2 C0.125,16.4375 0.4625,16.775 1.8125,16.775 L12.8375,16.775 L23.8625,16.775 C25.1,16.775 25.55,16.4375 25.55,15.2 L25.55,8.675 L24.875,8.675 L22.2875,8.675 L21.3875,8.675 L21.3875,7.775 L21.3875,5.525 L16.4375,5.525 L12.95,5.525 L12.95,5.525 L6.9875,5.525 C4.9625,5.6375 3.05,5.525 1.025,5.525 L1.025,5.525 L1.025,5.525 Z M5.75,13.175 C4.7375,13.175 3.95,12.3875 3.95,11.375 C3.95,10.25 4.85,9.4625 5.8625,9.4625 C6.0875,9.4625 6.425,9.4625 6.65,9.575 C6.7625,9.575 6.9875,9.6875 7.1,9.6875 C7.2125,9.6875 7.4375,9.6875 7.55,9.575 C7.775,9.4625 8.1125,9.4625 8.3375,9.4625 C8.9,9.4625 9.4625,9.6875 9.8,10.1375 C10.3625,10.8125 10.3625,11.7125 9.9125,12.3875 C9.575,12.95 9.0125,13.175 8.45,13.175 C8.225,13.175 7.8875,13.175 7.6625,12.95 C7.4375,12.8375 7.325,12.8375 7.1,12.8375 C6.9875,12.8375 6.7625,12.8375 6.5375,12.95 C6.2,13.175 5.975,13.175 5.75,13.175 L5.75,13.175 Z" id="Shape"/>
                        <path d="M11.0375,1.475 L18.575,1.475 L19.25,1.475 L18.0125,2.7125 L17.7875,2.9375 L15.7625,2.9375 L12.8375,2.9375 L2.2625,2.9375 L1.5875,2.9375 L1.3625,2.9375 L1.3625,2.375 L1.3625,2.0375 L1.3625,1.3625 L2.0375,1.3625 L11.0375,1.475 L11.0375,1.475 Z M11.0375,0.35 L1.925,0.35 C0.4625,0.35 0.125,0.6875 0.125,2.15 C0.125,3.95 0.0125,4.175 1.1375,4.175 L2.15,4.175 L12.725,4.175 L18.125,4.175 L18.6875,3.6125 L21.6125,0.4625 C18.2375,0.35 14.6375,0.35 11.0375,0.35 L11.0375,0.35 Z" id="Shape"/>
                    </g>
                </g>
            </g>
        </g>
    </g>
</svg>