<?xml version="1.0" encoding="utf-8"?>
<!-- Generator: Adobe Illustrator 23.1.0, SVG Export Plug-In . SVG Version: 6.00 Build 0)  -->
<svg version="1.1" id="Layer_1" xmlns="http://www.w3.org/2000/svg" xmlns:xlink="http://www.w3.org/1999/xlink" x="0px" y="0px"
	 viewBox="0 0 831 270.6" style="enable-background:new 0 0 831 270.6;" xml:space="preserve">
<style type="text/css">
	.st0{fill:#77B46A;}
</style>
<path class="st0" d="M205.7,63.3L39,32.6l87.7,220.8l122.3-149L205.7,63.3z M203,76.8l25.5,24.2l-69.8,12.6L203,76.8z M143.6,111.2
	l-73.5-61l120.2,22.1L143.6,111.2z M138.4,122l-12,99.1L61.8,58.4L138.4,122z M149.5,127.2l77.2-14l-88.6,108L149.5,127.2z"/>
<g>
	<g>
		<path class="st0" d="M326.1,114.8h12.8v83.9h-12.8V114.8z M291.7,79.3h104.7v12.8H291.7V79.3z M349.3,114.8h12.8v83.9h-12.8V114.8
			z M717.1,198.8h13v-50.5l-13-14.4V198.8z"/>
		<path class="st0" d="M785.3,79.3v93.6L693.6,71v127.8h13V105l91.7,102V79.3H785.3z M609.7,79.2c-33,0-59.8,26.8-59.8,59.8
			s26.8,59.8,59.8,59.8s59.8-26.8,59.8-59.8S642.6,79.2,609.7,79.2z M609.7,185.8c-25.9,0-46.9-21-46.9-46.9s21-46.9,46.9-46.9
			s46.9,21,46.9,46.9S635.5,185.8,609.7,185.8z"/>
		<path class="st0" d="M609.7,130.3c-4.7,0-8.6,3.9-8.6,8.6s3.9,8.6,8.6,8.6s8.6-3.9,8.6-8.6S614.4,130.3,609.7,130.3z M527.4,115.9
			c0-20.2-16.3-36.6-36.4-36.6h-68.4v119.5h12.8V92.2H491c12.9,0,23.3,10.6,23.3,23.6s-10.3,23.5-23.1,23.7h-45.4v59.2h12.8v-46.2
			h29.9l24.4,46.2h14.8l-25.5-48C517.2,145.8,527.4,131.6,527.4,115.9L527.4,115.9z"/>
	</g>
</g>
</svg>
