<?xml version="1.0" encoding="utf-8"?>
<!-- Generator: Adobe Illustrator 23.1.0, SVG Export Plug-In . SVG Version: 6.00 Build 0)  -->
<svg version="1.1" id="Layer_1" xmlns="http://www.w3.org/2000/svg" xmlns:xlink="http://www.w3.org/1999/xlink" x="0px" y="0px"
	 viewBox="0 0 1080 270.6" style="enable-background:new 0 0 1080 270.6;" xml:space="preserve">
<style type="text/css">
	.st0{fill:#5D925C;}
</style>
<path class="st0" d="M134.6,11.5c6.7,0,13.5,0,20.2,0c1.2,1,2.6,0.5,3.9,0.7c7,0.8,13.9,2.3,20.7,3.9c3.1,1,6.1,2,9.2,3
	c7,2.8,13.9,6,20.5,9.7c1.4,0.9,2.9,1.7,4.3,2.6c1.8,1.3,3.7,2.5,5.5,3.8c3.3,2.7,6.7,5.3,9.9,8.1c6.4,5.5,11.9,11.8,17.2,18.2
	c0.6,1.2,1.4,2.3,2.3,3.2c1.4,2,2.7,4.1,4.1,6.1c3.7,6.4,7.2,12.9,10.1,19.8c2.5,6.4,4.5,13.1,6.3,19.7c0.6,3.3,1.2,6.6,1.8,9.9
	c0.2,3.3,0.5,6.5,0.7,9.8c0,3.3,0,6.6,0,9.9c0,3.3,0,6.6,0,9.9c-0.4,3.3-0.9,6.6-1.3,9.9c-0.7,3.3-1.4,6.6-2.1,9.9
	c-1.9,6.7-4.1,13.3-6.8,19.7c-3.1,6.9-6.9,13.5-10.9,19.8c-0.6,0.8-1.1,1.6-1.7,2.5c-1.9,2.5-3.8,4.9-5.7,7.4
	c-1.6,1.8-3.2,3.6-4.8,5.5c-1.4,1.5-2.9,3-4.3,4.5c-1.7,1.5-3.3,3.1-5,4.6c-2.1,1.8-4.3,3.5-6.4,5.3c-1.2,0.9-2.3,1.7-3.5,2.6
	c-6.3,4.3-13,8.2-19.8,11.7c-6.5,2.8-13.1,5.2-19.8,7.4c-3.3,0.7-6.6,1.5-9.8,2.2c-3.3,0.5-6.6,1-9.9,1.5c-3.3,0.1-6.6,0.2-9.9,0.4
	c-3.3,0-6.6,0-9.9,0c-3.3-0.1-6.6-0.3-9.9-0.4c-3.3-0.5-6.6-1-9.9-1.5c-3.3-0.8-6.5-1.6-9.8-2.4c-6.8-2-13.4-4.6-19.8-7.5
	c-6.8-3.4-13.4-7.4-19.7-11.7c-1-0.8-2-1.5-3-2.3c-2.3-1.9-4.6-3.8-6.8-5.7c-1.5-1.4-3-2.8-4.5-4.2c-1.6-1.7-3.2-3.3-4.8-5
	c-1.4-1.7-2.9-3.3-4.3-5c-1.9-2.5-3.8-4.9-5.6-7.4c-0.6-0.8-1.1-1.6-1.7-2.5c-2.2-3.6-4.4-7.2-6.6-10.8c-0.3-1.1-0.9-2.1-1.6-3
	c-0.9-2-1.8-4-2.7-6c-1.4-3.5-2.7-6.9-4.1-10.4c-1.8-6.3-3.6-12.6-4.8-19.1c-0.4-3.3-0.9-6.6-1.3-9.9c-0.2-3.3-0.3-6.6-0.5-9.9
	c0.1-3.3,0.1-6.6,0.2-9.8c0.3-3.3,0.7-6.6,1-9.9c0.6-3.3,1.2-6.6,1.8-9.9c0.4-0.8,0.6-1.6,0.5-2.5c3.6-13.1,8.7-25.5,15.8-37
	c1.2-1.8,2.3-3.5,3.5-5.3c1.1-1.5,2.3-3,3.4-4.6c7.7-9.6,16.4-18.1,26.3-25.5c2-1.4,4-2.7,5.9-4.1c1.3-0.8,2.6-1.6,3.9-2.4
	c6.4-3.6,13-6.6,19.7-9.5c3.3-1.1,6.6-2.1,9.9-3.2c5.7-1.5,11.5-2.7,17.4-3.6C130.1,12.4,132.5,12.6,134.6,11.5z M88.3,139.9
	c0,1.1,0,2.3-0.1,3.4c-0.2,2.1,0.5,2.9,2.5,2.2c3.3,0.3,6.6,0.3,9.8,0c3.7,0.4,3.7,0.4,3.9,4.1c0,0.1,0,0.2,0.1,0.2
	c-0.2,3.3-0.2,6.6,0,9.9c-0.2,3.3-0.2,6.6,0,9.9c-0.2,3.3-0.2,6.6,0,9.9c-0.2,3.3-0.2,6.6,0,9.9c-0.2,3.3-0.2,6.6,0,9.9
	c0,0.6-0.1,1.1-0.1,1.7c0,5.9,0,5.9,6,5.6c3.3,0,6.6,0,9.9,0s6.6,0,9.9,0s6.6,0,9.9,0c3.3,0,6.6,0,9.9,0c3.3,0.1,6.6,0.4,9.9-0.3
	c3.4,0,6.6-0.7,9.9-1.6c7.1-1.5,13.7-4.3,19.7-8.5c3-1.8,5.7-4,8-6.7c0.8-0.5,1.4-1.2,1.9-2c2.3-2.3,4.2-5,5.8-7.9
	c3.8-6.1,6.2-12.7,7.4-19.7c0.9-3.2,1.4-6.5,1.5-9.9c0.6-3.3,0.7-6.6,0.5-9.9c0-3.3,0.3-6.6-0.4-9.9c0.1-3.4-0.5-6.7-1.3-10
	c-1.2-7-3.3-13.6-6.9-19.7c-1.7-3.5-3.9-6.7-6.6-9.5c0-0.2,0-0.3-0.2-0.3c-2.7-3.5-6-6.3-9.7-8.7c-0.6-0.6-1.2-1.1-2.1-1.3
	c-2.2-1.6-4.6-3-7.2-3.9c-3.3-1.8-6.9-3-10.5-3.8c-3.2-1-6.5-1.8-9.9-2c-6.5-1.4-13.2-1.1-19.8-1c-11.4,0-22.8,0-34.2-0.1
	c-1.3,0-1.5,0.5-1.5,1.6c0.1,3.1,0.1,6.2,0.1,9.3c0,3.3,0,6.6,0,9.9c-0.2,3.3-0.2,6.6,0,9.9c0,3.3,0,6.6,0,9.9
	c-0.2,3.3-0.2,6.6,0,9.9c0,3.3,0,6.6,0,9.9c-1.1,1.3-2.7,0.2-3.9,0.7c-3.3,0-6.6,0-9.9,0c-1.8-0.5-2.7-0.1-2.5,2.1
	C88.4,135.2,88.2,137.6,88.3,139.9z"/>
<path class="st0" d="M129.4,92.7c3.5,0,6.9-0.1,10.4-0.1s6.9,0,10.4,0c3.5,0.5,6.9,1.1,10.4,1.6c3.4,1.4,6.9,2.8,10.3,4.2l0,0
	c3.9,2.5,7.4,5.3,10.5,8.7c0.4,0.6,0.9,1.1,1.3,1.7c2.2,3.3,4,6.7,5.5,10.3c2.3,6.8,3.1,13.8,3.3,20.8c-0.1,2.6-0.2,5.2-0.3,7.8
	c-0.5,0.6-0.5,1.4-0.4,2.1c-0.7,3.7-1.7,7.3-2.8,10.9c-1.8,3.7-3.8,7.2-6.4,10.3c-0.1,0.1-0.2,0.3-0.4,0.4
	c-5.8,5.9-12.9,9.2-20.8,11.1c-3.5,0.3-6.9,0.7-10.4,1c-3.5,0-6.9,0-10.4,0c-3.5-0.1-6.9-0.1-10.4-0.2c0-0.7-0.1-1.3-0.1-2
	c0-3.5,0-6.9,0-10.4s0-7,0-10.4c0-3.5,0-6.9,0-10.4c0-1.4,0-2.8,0.1-4.2c3.5-0.1,6.9-0.2,10.4-0.4c3.5,0.3,7,0.3,10.5,0
	c1.3,0.1,2.5,0.2,3.8,0.2c5.8,0,5.8,0,5.3-6c0-2.8,0.1-5.5,0.1-8.3c0-1.1-0.3-1.6-1.5-1.5c-2.6,0.1-5.2,0.1-7.8,0.1
	c-3.5,0-6.9,0-10.4,0c-3.5-0.1-6.9-0.2-10.4-0.2c0-0.2,0-0.3-0.1-0.5c0-3.5,0-7,0-10.4c0-3.5,0-6.9,0-10.4s0-7,0-10.4
	C129.3,96.5,129.4,94.6,129.4,92.7z"/>
<g>
	<g>
		<path class="st0" d="M325.3,87H361c16.3,0,28.7,4.3,37.2,13s12.7,20.2,12.7,34.6s-4.2,26-12.7,34.6c-8.5,8.7-20.9,13-37.2,13
			h-35.6V87H325.3z M382.7,156.8c4.9-5,7.4-12.4,7.4-22.2s-2.5-17.2-7.4-22.2s-12.2-7.5-21.7-7.5h-15.2v59.3H361
			C370.5,164.3,377.7,161.8,382.7,156.8z"/>
		<path class="st0" d="M424.1,153.3c-2.1-5.9-3.2-12.1-3.2-18.6s1.1-12.7,3.2-18.6s5.3-11.2,9.4-15.8c4.1-4.6,9.5-8.3,16-11
			s13.9-4.1,22-4.1c8.2,0,15.5,1.4,22,4.1s11.9,6.4,16,11c4.1,4.6,7.3,9.9,9.4,15.8c2.1,5.9,3.2,12.1,3.2,18.6s-1.1,12.7-3.2,18.6
			c-2.1,5.9-5.3,11.2-9.4,15.8s-9.5,8.3-16,11s-13.9,4.1-22,4.1c-8.2,0-15.5-1.4-22-4.1c-6.5-2.7-11.9-6.4-16-11
			C429.4,164.4,426.3,159.2,424.1,153.3z M493.4,156.5c5.2-5.8,7.8-13.1,7.8-21.9c0-8.8-2.6-16.1-7.8-21.9
			c-5.2-5.8-12.5-8.7-21.9-8.7c-9.5,0-16.9,2.9-22,8.7c-5.2,5.8-7.8,13.1-7.8,21.9s2.6,16.1,7.8,21.9c5.2,5.8,12.5,8.7,22,8.7
			S488.3,162.3,493.4,156.5z"/>
		<path class="st0" d="M532.1,134.6c0-8.3,1.4-15.8,4.4-22.2c2.9-6.5,6.8-11.7,11.8-15.6c4.9-3.9,10.4-6.8,16.5-8.8
			c6.1-1.9,12.5-2.9,19.2-2.9c10.3,0,20.1,2,29.2,6.1v19.4c-7.4-4.9-16.3-7.3-26.5-7.3c-9.4,0-17.4,2.6-23.9,7.8
			c-6.5,5.2-9.8,13-9.8,23.5c0,6,1,11.2,3.1,15.5c2,4.4,4.7,7.6,8.1,9.9c3.4,2.2,6.8,3.8,10.3,4.8s7.3,1.5,11.2,1.5
			s7.4-0.6,10.5-1.8v-34h19.4v47.2c-10,4.3-20.3,6.4-31,6.4c-5.4,0-10.7-0.6-15.7-1.8s-9.8-3.1-14.3-5.6c-4.5-2.6-8.4-5.8-11.6-9.5
			c-3.3-3.8-5.9-8.4-7.8-14C533,147.6,532.1,141.4,532.1,134.6z"/>
		<path class="st0" d="M632.7,87h67v18h-46.6v20.3h42.6v17.8h-42.6v21.2h47.5v18h-67.9V87z"/>
		<path class="st0" d="M710.2,135.7c0-8.3,1.5-15.8,4.4-22.5s6.8-12,11.7-16c4.8-4,10.3-7,16.3-9s12.2-3.1,18.8-3.1
			c10,0,19,2,27.2,6.1v19.4c-6.4-5-14.4-7.5-23.8-7.5c-9.2,0-17.2,2.7-23.7,8.2c-6.6,5.5-9.9,13.6-9.9,24.3c0,5.1,1,9.6,2.9,13.5
			s4.5,7.1,7.7,9.5s6.8,4.1,10.7,5.4c3.9,1.2,8,1.8,12.3,1.8c10.5,0,18.7-2.6,24.5-7.9v20c-8.4,4.1-17.6,6.1-27.6,6.1
			c-6.5,0-12.8-1-18.8-3s-11.4-4.9-16.4-8.7c-4.9-3.8-8.9-8.9-11.8-15.2C711.7,150.9,710.2,143.7,710.2,135.7z"/>
		<path class="st0" d="M801.3,153.3c-2.1-5.9-3.2-12.1-3.2-18.6s1.1-12.7,3.2-18.6c2.1-5.9,5.3-11.2,9.4-15.8c4.1-4.6,9.5-8.3,16-11
			s13.9-4.1,22-4.1s15.5,1.4,22,4.1s11.9,6.4,16,11s7.3,9.9,9.4,15.8c2.1,5.9,3.2,12.1,3.2,18.6s-1.1,12.7-3.2,18.6
			c-2.1,5.9-5.3,11.2-9.4,15.8c-4.1,4.6-9.5,8.3-16,11s-13.9,4.1-22,4.1s-15.5-1.4-22-4.1c-6.5-2.7-11.9-6.4-16-11
			C806.5,164.4,803.4,159.2,801.3,153.3z M870.6,156.5c5.2-5.8,7.8-13.1,7.8-21.9c0-8.8-2.6-16.1-7.8-21.9s-12.5-8.7-21.9-8.7
			c-9.5,0-16.9,2.9-22,8.7c-5.2,5.8-7.8,13.1-7.8,21.9s2.6,16.1,7.8,21.9c5.2,5.8,12.5,8.7,22,8.7
			C858.1,165.2,865.4,162.3,870.6,156.5z"/>
		<path class="st0" d="M914.4,87h20.4v95.2h-20.4V87z"/>
		<path class="st0" d="M975.6,182.2h-20.4V87h19.2l44.3,62.2c-0.3-3.9-0.4-8.2-0.4-13.1V87h20.4v95.2h-19.2L975.2,120
			c0.3,3.9,0.4,8.3,0.4,13.1V182.2z"/>
	</g>
</g>
</svg>
